<svg width="300" height="75" viewBox="0 0 300 75" fill="none" xmlns="http://www.w3.org/2000/svg">
<g clip-path="url(#clip0_297_5283)">
<g filter="url(#filter0_i_297_5283)">
<path d="M7.13551 69.2778C6.92782 69.2586 6.73526 69.1611 6.5969 69.0054C6.45854 68.8496 6.38475 68.6471 6.3905 68.439C6.73413 62.5106 6.25197 56.5632 4.95779 50.767C4.00486 45.0644 4.60525 39.211 6.69614 33.8193C6.69614 33.8193 6.69614 33.6096 6.79166 33.5143C7.84211 30.6304 9.55458 28.032 11.792 25.9272C14.0293 23.8224 16.7295 22.2696 19.6762 21.3931C22.6229 20.5167 25.7342 20.3409 28.7612 20.8799C31.7882 21.4189 34.6467 22.6577 37.1078 24.4971C46.5924 31.8219 54.2163 41.2718 59.3625 52.0824C59.5197 52.3903 59.5766 52.7396 59.5253 53.0814C59.4739 53.4231 59.3168 53.7404 59.076 53.9887C53.8609 59.3456 43.5072 68.8775 37.2415 69.9832C34.395 70.3915 31.5207 70.5763 28.6452 70.536C21.0041 70.536 11.6629 69.7544 7.0973 69.316M20.2018 11.4385C19.8829 11.4386 19.571 11.5313 19.304 11.7054H19.1894C11.2472 16.31 5.29328 23.6845 2.47443 32.4086C0.053353 38.6504 -0.607335 45.435 0.564151 52.0252C2.47443 59.0406 1.69121 70.5551 1.65301 71.2033V71.6989C1.62926 71.9109 1.64818 72.1255 1.70866 72.33C1.76914 72.5346 1.86996 72.725 2.00519 72.8902C2.14043 73.0553 2.30736 73.1919 2.4962 73.2917C2.68503 73.3916 2.89195 73.4529 3.10482 73.4719H3.6206C4.53753 73.4719 17.8331 74.9779 28.4542 74.9779C31.6565 75.0782 34.86 74.8224 38.0056 74.2153C47.9772 72.309 63.4505 55.6663 64.1 54.9229L64.3292 54.656C64.5517 54.4198 64.695 54.1205 64.7395 53.7995C64.784 53.4784 64.7274 53.1515 64.5776 52.864L64.4247 52.5589C47.939 16.8716 21.8446 11.7244 20.7558 11.4385H20.5839H20.2018Z" fill="url(#paint0_linear_297_5283)"/>
</g>
<g filter="url(#filter1_i_297_5283)">
<path d="M23.1817 5.39504C22.9713 5.8399 22.8539 6.32286 22.8367 6.81449C22.8195 7.30611 22.9028 7.79608 23.0815 8.25452C23.2603 8.71296 23.5307 9.13026 23.8764 9.48098C24.222 9.83169 24.6356 10.1085 25.092 10.2944C48.5502 20.2076 62.0177 42.5693 65.7809 49.5657C66.183 50.3131 66.8364 50.895 67.6262 51.2088C68.4159 51.5227 69.2913 51.5484 70.0981 51.2814C77.2044 48.9747 74.5682 37.9368 70.0981 29.1675C64.9595 19.445 67.7485 15.5751 71.7219 13.0205C75.6953 10.466 76.3065 2.97394 72.1612 2.59267C68.0159 2.21139 68.6081 6.57699 63.3167 9.01714C58.0252 11.4573 36.2862 0.400338 30.1733 0H29.8104C26.5056 0 24.3852 2.87862 23.1817 5.39504Z" fill="url(#paint1_linear_297_5283)"/>
</g>
<path d="M20.2017 51.0141L9.65701 42.6451C9.50966 42.5376 9.38968 42.3971 9.30673 42.2348C9.22377 42.0725 9.18018 41.8931 9.17944 41.711V40.7959C9.18636 40.4986 9.30014 40.2138 9.50004 39.9933C9.69994 39.7728 9.97261 39.6314 10.2683 39.5949L20.813 38.3748C20.9843 38.3533 21.1583 38.3682 21.3234 38.4186C21.4885 38.4689 21.641 38.5536 21.771 38.6671C21.9009 38.7806 22.0053 38.9202 22.0772 39.0768C22.1492 39.2335 22.1871 39.4035 22.1884 39.5758V40.3193C22.1855 40.6228 22.0711 40.9147 21.8669 41.1396C21.6627 41.3644 21.3828 41.5067 21.0805 41.5394L15.9418 41.9397C15.6816 41.9432 15.4293 42.0295 15.2216 42.1861C15.0139 42.3426 14.8617 42.5612 14.7871 42.81C14.7125 43.0589 14.7194 43.325 14.8069 43.5696C14.8943 43.8142 15.0577 44.0246 15.2732 44.1702L21.6727 49.1077C21.8173 49.222 21.935 49.3666 22.0176 49.5313C22.1001 49.696 22.1454 49.8768 22.1502 50.0609C22.1405 50.2779 22.0728 50.4885 21.9542 50.6707C21.8356 50.8529 21.6704 51.0002 21.4756 51.0974C21.2809 51.1946 21.0637 51.2381 20.8464 51.2234C20.6292 51.2088 20.4198 51.1365 20.24 51.0141" fill="white"/>
<path d="M33.7839 35.7632C34.2351 35.9428 34.6009 36.2872 34.8067 36.7263C35.0125 37.1655 35.043 37.6664 34.8918 38.1271L28.1294 55.2845C28.1061 55.5816 28.0133 55.8691 27.8585 56.124C27.7037 56.3788 27.4912 56.5939 27.2381 56.7519C26.9849 56.91 26.6981 57.0066 26.4008 57.034C26.1034 57.0614 25.8038 57.0189 25.5259 56.9098C25.248 56.8008 24.9995 56.6282 24.8006 56.406C24.6016 56.1838 24.4576 55.9181 24.3801 55.6303C24.3026 55.3425 24.2938 55.0406 24.3545 54.7488C24.4151 54.457 24.5434 54.1834 24.7291 53.95L31.5106 36.7927C31.6995 36.374 32.0334 36.0375 32.4511 35.8448C32.8687 35.6522 33.3419 35.6165 33.7839 35.7442" fill="white"/>
<path d="M43.9274 51.4709L37.7763 46.6859C37.6244 46.5784 37.4979 46.4392 37.4055 46.2778C37.3131 46.1165 37.2571 45.937 37.2414 45.7518C37.2404 45.5148 37.3065 45.2824 37.432 45.0813C37.5576 44.8801 37.7375 44.7184 37.9511 44.6148C38.1647 44.5113 38.4032 44.47 38.6393 44.4957C38.8754 44.5215 39.0993 44.6133 39.2854 44.7605L49.7537 53.0532C49.8994 53.1751 50.0173 53.3266 50.0996 53.4975C50.182 53.6684 50.2269 53.8549 50.2313 54.0445V54.8834C50.2331 55.1952 50.1188 55.4965 49.9105 55.729C49.7023 55.9615 49.4149 56.1085 49.1042 56.1416L38.6359 57.3616C38.4595 57.3804 38.281 57.3618 38.1123 57.3071C37.9435 57.2523 37.7883 57.1626 37.6566 57.0438C37.525 56.9251 37.42 56.7799 37.3484 56.6179C37.2769 56.4558 37.2404 56.2805 37.2414 56.1034V55.5315C37.2356 55.2205 37.349 54.919 37.5585 54.6887C37.768 54.4584 38.0577 54.3166 38.3685 54.2924L43.2206 53.7586C43.487 53.7548 43.7454 53.6669 43.9586 53.5075C44.1718 53.3481 44.329 53.1253 44.4075 52.8712C44.486 52.6172 44.4818 52.3448 44.3956 52.0932C44.3093 51.8416 44.1454 51.6238 43.9274 51.4709Z" fill="white"/>
<path d="M121.72 11.4122C120.383 12.7902 118.786 14.6075 116.931 16.8044C115.075 19.0012 113.16 21.4377 111.164 24.0539C109.169 26.6701 107.174 29.3462 105.278 32.0423C103.383 34.7384 101.627 37.4745 100.11 40.0308H122.418V48.3188H87.9988V42.5072C89.196 40.3503 90.6326 37.9538 92.3286 35.3176C94.0246 32.6814 95.8204 30.0452 97.676 27.3292C99.5317 24.6131 101.407 22.0568 103.323 19.5604C105.238 17.064 107.014 14.8073 108.65 12.8101H89.0164V4.58203H121.72V11.4122Z" fill="white"/>
<path d="M136.924 5.51989C136.948 6.26719 136.811 7.01095 136.522 7.70031C136.233 8.38967 135.798 9.00838 135.248 9.51411C134.15 10.4966 132.73 11.0398 131.257 11.0398C129.785 11.0398 128.364 10.4966 127.267 9.51411C126.723 9.00415 126.294 8.3842 126.009 7.69551C125.723 7.00682 125.587 6.26517 125.61 5.51989C125.586 4.77444 125.721 4.0324 126.007 3.34351C126.293 2.65463 126.722 2.03483 127.267 1.52566C128.364 0.54317 129.785 0 131.257 0C132.73 0 134.15 0.54317 135.248 1.52566C135.798 2.03139 136.233 2.6501 136.522 3.33946C136.811 4.02883 136.948 4.77259 136.924 5.51989Z" fill="white"/>
<path d="M136.046 15.126H126.628V48.3779H136.046V15.126Z" fill="white"/>
<path d="M168.569 15.5455C167.492 15.3058 166.355 15.1061 165.177 14.9463C164 14.7866 162.823 14.6468 161.626 14.5269C160.429 14.4071 159.251 14.3672 158.114 14.3672C155.682 14.3338 153.263 14.7327 150.971 15.5455C148.979 16.257 147.162 17.3874 145.643 18.8607C144.178 20.3169 143.048 22.0752 142.331 24.0132C141.547 26.1552 141.162 28.4227 141.194 30.7036C140.939 34.8286 142.242 38.8988 144.845 42.1071C146.212 43.4962 147.863 44.5726 149.685 45.2621C151.507 45.9516 153.457 46.2379 155.4 46.1013C156.579 46.106 157.756 45.9923 158.912 45.7618C159.983 45.5244 161.026 45.1764 162.025 44.7233V45.9216C162.088 47.6012 161.486 49.2379 160.349 50.475C159.565 51.1373 158.655 51.6343 157.675 51.9363C156.694 52.2382 155.663 52.339 154.642 52.2324C151.15 52.2624 147.688 51.583 144.466 50.2353L142.83 58.2238C144.669 58.8325 146.549 59.3064 148.457 59.6417C150.432 59.9956 152.435 60.1761 154.443 60.181C160.202 60.181 164.459 58.8495 167.213 56.1867C169.966 53.5239 171.35 49.4897 171.363 44.0842V16.1246C170.525 15.885 169.567 15.6453 168.49 15.4057M161.945 37.1742C160.462 37.9995 158.793 38.4325 157.096 38.4324C152.826 38.4324 150.711 35.8162 150.711 30.4439C150.623 28.2153 151.268 26.0193 152.547 24.193C153.197 23.3557 154.043 22.6917 155.011 22.2597C155.978 21.8278 157.037 21.6412 158.094 21.7165C158.932 21.7165 159.67 21.7165 160.309 21.8164C160.947 21.9163 161.486 21.9562 161.945 22.0361V37.1742Z" fill="white"/>
<path d="M178.167 16.2641C180.202 15.7174 182.267 15.2906 184.352 14.986C186.991 14.5611 189.661 14.354 192.334 14.3669C194.73 14.3002 197.119 14.6794 199.377 15.4852C201.104 16.1217 202.637 17.195 203.827 18.6007C204.952 20.0121 205.749 21.6561 206.161 23.4138C206.644 25.4416 206.878 27.5205 206.86 29.6048V48.3777H197.442V30.7032C197.611 28.4853 197.198 26.2616 196.244 24.2526C195.729 23.5741 195.046 23.0421 194.262 22.7094C193.478 22.3766 192.621 22.2545 191.775 22.3553C191.097 22.3553 190.378 22.3553 189.62 22.4552C188.862 22.555 188.183 22.595 187.625 22.6748V48.3777H178.167V16.2641Z" fill="white"/>
<path d="M241.598 47.2396C239.564 47.7963 237.498 48.2297 235.412 48.5377C232.772 48.9476 230.103 49.1479 227.431 49.1368C225.032 49.2095 222.642 48.8231 220.388 47.9985C218.651 47.3412 217.117 46.2394 215.938 44.8031C214.805 43.3669 214.007 41.6951 213.604 39.9102C213.114 37.8633 212.879 35.7637 212.905 33.6592V15.126H222.303V32.5208C222.146 34.7768 222.558 37.0361 223.5 39.0913C223.999 39.799 224.679 40.3584 225.47 40.71C226.26 41.0617 227.131 41.1924 227.99 41.0885C228.668 41.0885 229.386 41.0884 230.145 40.9886C230.903 40.8887 231.561 40.8488 232.14 40.7689V15.126H241.538L241.598 47.2396Z" fill="white"/>
<path d="M248.022 6.85863L257.44 5.34082V15.1267H268.794V22.9753H257.5V34.6984C257.42 36.3467 257.778 37.9869 258.538 39.4515C259.015 40.0926 259.656 40.5938 260.393 40.9029C261.13 41.212 261.936 41.3177 262.728 41.209C263.778 41.2025 264.826 41.109 265.861 40.9294C266.861 40.7542 267.843 40.4868 268.794 40.1305L270.131 47.4599C268.9 47.9638 267.633 48.3711 266.339 48.6782C264.654 49.0346 262.934 49.2021 261.211 49.1775C259.043 49.248 256.881 48.8953 254.846 48.139C253.295 47.5128 251.924 46.5109 250.856 45.2232C249.769 43.9065 249.004 42.3542 248.621 40.6897C248.206 38.7606 248.005 36.7915 248.022 34.8182V6.85863Z" fill="white"/>
<path d="M285.914 41.6074C287.152 41.6849 288.393 41.5152 289.565 41.1082C289.926 40.9241 290.222 40.6344 290.415 40.2777C290.607 39.921 290.687 39.514 290.643 39.111C290.609 38.6862 290.465 38.2777 290.223 37.927C289.981 37.5763 289.651 37.2958 289.266 37.1139C287.906 36.3327 286.485 35.6648 285.016 35.1168C283.559 34.5576 282.222 33.9984 281.025 33.3993C279.891 32.8687 278.853 32.1533 277.952 31.2824C277.088 30.4551 276.408 29.4548 275.957 28.3466C275.462 27.0329 275.225 25.6361 275.259 24.2325C275.205 22.8128 275.492 21.4009 276.097 20.1152C276.701 18.8294 277.604 17.7074 278.731 16.8432C281.518 14.8979 284.875 13.9418 288.268 14.1271C290.216 14.1209 292.161 14.3015 294.074 14.6664C295.583 14.925 297.066 15.3194 298.504 15.8447L296.848 23.1741C295.683 22.7714 294.497 22.4314 293.296 22.1555C291.874 21.846 290.422 21.6986 288.966 21.7162C286.013 21.7162 284.537 22.535 284.537 24.1726C284.528 24.5227 284.596 24.8705 284.736 25.1912C284.905 25.5417 285.168 25.8389 285.495 26.0499C285.987 26.3762 286.5 26.6698 287.031 26.9286C287.689 27.2482 288.528 27.6077 289.525 27.9871C291.318 28.6484 293.059 29.4428 294.733 30.3637C295.899 30.9631 296.958 31.7528 297.866 32.7003C298.621 33.5183 299.187 34.4936 299.522 35.5562C299.851 36.7456 300.006 37.9768 299.981 39.2109C300.069 40.6699 299.775 42.1266 299.127 43.4368C298.48 44.7469 297.501 45.8649 296.289 46.6801C293.138 48.5374 289.505 49.4134 285.854 49.1965C283.377 49.2551 280.904 49.0001 278.491 48.4376C277.132 48.1154 275.799 47.6949 274.5 47.1794L276.077 39.5304C277.671 40.1732 279.321 40.6679 281.005 41.0083C282.644 41.3624 284.316 41.5431 285.993 41.5475" fill="white"/>
<path d="M192.772 56.7461V59.562H187.285V74.6402H184.013V59.562H178.506V56.7461H192.772Z" fill="#1490FE"/>
<path d="M192.972 67.9496C192.95 66.8861 193.132 65.8282 193.511 64.8341C193.838 64.0142 194.334 63.2725 194.967 62.6572C195.533 62.0737 196.212 61.6116 196.962 61.2992C197.699 61.0076 198.485 60.8585 199.277 60.8598C200.085 60.813 200.893 60.9444 201.645 61.2446C202.396 61.5449 203.073 62.0066 203.627 62.5973C204.783 64.0541 205.346 65.8948 205.203 67.7499C205.203 67.9296 205.203 68.1293 205.203 68.329C205.215 68.5219 205.215 68.7153 205.203 68.9082H196.164C196.174 69.3858 196.28 69.8565 196.475 70.2923C196.67 70.728 196.952 71.1199 197.302 71.4445C198.15 72.0801 199.197 72.3917 200.255 72.3233C200.925 72.3249 201.593 72.258 202.25 72.1235C202.755 72.0227 203.249 71.8756 203.727 71.6842L204.146 74.2405C203.914 74.3463 203.673 74.4331 203.427 74.5001C203.087 74.6078 202.741 74.6945 202.39 74.7597L201.153 74.9594C200.694 74.9893 200.234 74.9893 199.776 74.9594C198.72 74.9817 197.669 74.7986 196.683 74.4202C195.857 74.1063 195.113 73.6077 194.508 72.9623C193.941 72.3108 193.513 71.5495 193.251 70.7256C192.962 69.8222 192.821 68.8781 192.832 67.9296M201.891 66.5316C201.894 66.1187 201.834 65.7077 201.711 65.3134C201.599 64.9461 201.424 64.6013 201.193 64.2949C200.957 64.0159 200.665 63.7911 200.335 63.6358C199.96 63.4617 199.551 63.373 199.137 63.3762C198.696 63.3699 198.259 63.4656 197.86 63.6558C197.509 63.8316 197.197 64.0761 196.943 64.3747C196.692 64.6707 196.496 65.0088 196.364 65.3733C196.231 65.7487 196.137 66.1369 196.085 66.5316H201.891Z" fill="#1490FE"/>
<path d="M207.678 67.9086C207.664 66.9503 207.82 65.9971 208.136 65.0926C208.426 64.2581 208.881 63.4906 209.473 62.8359C210.026 62.2019 210.706 61.6916 211.469 61.3381C212.352 60.9662 213.304 60.7825 214.262 60.7989C215.501 60.7872 216.729 61.0249 217.874 61.4978L217.195 64.0541C216.801 63.8886 216.394 63.755 215.978 63.6547C215.499 63.5569 215.011 63.51 214.521 63.5149C214 63.4792 213.477 63.5632 212.993 63.7605C212.509 63.9578 212.076 64.2631 211.728 64.6533C211.037 65.5924 210.698 66.7446 210.77 67.9086C210.709 69.0375 211.025 70.1546 211.668 71.084C212.047 71.5083 212.522 71.8364 213.053 72.0413C213.583 72.2462 214.155 72.3219 214.721 72.2623C215.251 72.2696 215.78 72.216 216.297 72.1025C216.755 72.0226 217.203 71.8954 217.634 71.7231L218.073 74.2993C217.579 74.5293 217.055 74.6906 216.517 74.7786C215.807 74.9162 215.085 74.9831 214.362 74.9784C213.332 75.0011 212.307 74.8178 211.349 74.4391C210.54 74.1248 209.816 73.6256 209.234 72.9812C208.662 72.3252 208.234 71.5564 207.977 70.7245C207.707 69.8103 207.573 68.8617 207.578 67.9086" fill="#1490FE"/>
<path d="M220.607 74.6399V55.1081L223.72 54.5889V61.2792C224.11 61.1465 224.51 61.0463 224.917 60.9796C225.364 60.8944 225.818 60.8476 226.274 60.8398C227.193 60.8113 228.109 60.9674 228.967 61.2992C229.639 61.5622 230.23 61.9959 230.683 62.5574C231.135 63.1455 231.449 63.8281 231.601 64.5545C231.793 65.3861 231.886 66.2374 231.88 67.0908V74.6399H228.748V67.5302C228.76 66.9147 228.713 66.2994 228.608 65.6928C228.548 65.2514 228.391 64.8286 228.149 64.4546C227.942 64.1389 227.642 63.8948 227.291 63.7556C226.856 63.6003 226.396 63.5258 225.934 63.5359C225.513 63.538 225.092 63.5781 224.677 63.6558L223.72 63.8954V74.6399H220.607Z" fill="#1490FE"/>
<path d="M235.612 61.5793C236.386 61.3686 237.172 61.2019 237.966 61.08C239.029 60.9125 240.103 60.8323 241.179 60.8404C242.117 60.8159 243.052 60.9718 243.932 61.2997C244.621 61.5618 245.232 61.9947 245.708 62.5579C246.161 63.1453 246.475 63.8283 246.626 64.555C246.794 65.3759 246.868 66.2136 246.845 67.0514V74.6404H243.713V67.5307C243.724 66.9152 243.678 66.3 243.573 65.6934C243.504 65.2542 243.348 64.8332 243.114 64.4552C242.894 64.1429 242.589 63.9003 242.236 63.7562C241.8 63.6025 241.341 63.5281 240.879 63.5365C240.467 63.5074 240.054 63.5074 239.642 63.5365L238.684 63.6563V74.6404H235.552L235.612 61.5793Z" fill="#1490FE"/>
<path d="M262.927 67.8704C262.937 68.8611 262.782 69.8465 262.469 70.7862C262.18 71.6167 261.732 72.3831 261.152 73.0429C260.593 73.6553 259.914 74.1449 259.156 74.4808C257.461 75.1724 255.564 75.1724 253.869 74.4808C253.113 74.1424 252.434 73.6531 251.873 73.0429C251.286 72.3882 250.838 71.6202 250.557 70.7862C250.227 69.8501 250.064 68.863 250.078 67.8704C250.064 66.8843 250.226 65.9038 250.557 64.9746C250.837 64.1417 251.293 63.3789 251.893 62.7378C252.452 62.1255 253.131 61.6358 253.889 61.2999C254.71 60.9566 255.593 60.7866 256.483 60.8006C257.385 60.7884 258.281 60.9582 259.116 61.2999C259.878 61.6284 260.559 62.1191 261.112 62.7378C261.705 63.3842 262.16 64.1455 262.449 64.9746C262.779 65.9038 262.941 66.8843 262.927 67.8704ZM259.735 67.8704C259.79 66.7268 259.468 65.5968 258.817 64.655C258.53 64.2895 258.163 63.9939 257.745 63.7907C257.326 63.5876 256.868 63.482 256.403 63.482C255.938 63.482 255.479 63.5876 255.061 63.7907C254.643 63.9939 254.276 64.2895 253.988 64.655C253.368 65.5931 253.067 66.707 253.13 67.8304C253.068 68.9725 253.368 70.1052 253.988 71.0658C254.276 71.4314 254.643 71.7269 255.061 71.9301C255.479 72.1333 255.938 72.2388 256.403 72.2388C256.868 72.2388 257.326 72.1333 257.745 71.9301C258.163 71.7269 258.53 71.4314 258.817 71.0658C259.445 70.1075 259.752 68.9747 259.695 67.8304" fill="#1490FE"/>
<path d="M270.789 74.8995C270.008 74.9 269.23 74.7993 268.474 74.5999C267.936 74.4329 267.44 74.1539 267.018 73.7811C266.652 73.4172 266.39 72.9622 266.259 72.463C266.108 71.8761 266.034 71.2718 266.04 70.6656V55.1081L269.153 54.5889V70.0665C269.117 70.385 269.117 70.7066 269.153 71.0251C269.201 71.2684 269.311 71.4953 269.472 71.6842C269.645 71.8769 269.865 72.0214 270.11 72.1036C270.443 72.203 270.784 72.2764 271.128 72.3232L270.789 74.8995Z" fill="#1490FE"/>
<path d="M278.311 60.8004C279.191 60.7735 280.069 60.9019 280.905 61.1798C281.534 61.3904 282.1 61.7545 282.553 62.2392C283.006 62.7239 283.331 63.3138 283.499 63.9558C283.689 64.6725 283.783 65.4112 283.778 66.1526V74.3408C283.299 74.3408 282.561 74.5605 281.603 74.7003C280.513 74.8611 279.413 74.9346 278.311 74.92C277.567 74.9242 276.825 74.8505 276.096 74.7003C275.479 74.5661 274.895 74.3079 274.38 73.9414C273.896 73.6024 273.51 73.1406 273.263 72.6033C272.989 71.9737 272.853 71.2928 272.864 70.6062C272.818 69.9592 272.95 69.3119 273.246 68.7346C273.541 68.1573 273.989 67.6719 274.54 67.3309C275.088 66.9799 275.697 66.7359 276.336 66.612C277.038 66.4656 277.753 66.392 278.471 66.3923H279.548C279.959 66.4548 280.365 66.5415 280.765 66.6519V66.1327C280.761 65.7887 280.714 65.4466 280.626 65.1141C280.545 64.7927 280.395 64.4928 280.187 64.2354C279.949 63.9784 279.656 63.7801 279.329 63.6562C278.899 63.5083 278.446 63.4406 277.992 63.4565C277.323 63.4439 276.655 63.4974 275.996 63.6163C275.494 63.6888 275 63.8092 274.52 63.9758L274.141 61.4394C274.701 61.255 275.275 61.1148 275.857 61.02C276.661 60.88 277.475 60.8132 278.291 60.8203M278.55 72.4635C279.286 72.4884 280.021 72.4349 280.745 72.3037V68.8288L279.987 68.669C279.628 68.6462 279.268 68.6462 278.91 68.669C278.557 68.6499 278.204 68.6499 277.852 68.669C277.527 68.7235 277.211 68.8244 276.914 68.9686C276.628 69.0858 276.384 69.2879 276.216 69.5477C276.039 69.828 275.948 70.1547 275.957 70.4864C275.925 70.7818 275.973 71.0804 276.095 71.351C276.218 71.6215 276.412 71.854 276.655 72.0241C277.268 72.3476 277.959 72.4929 278.65 72.4435" fill="#1490FE"/>
<path d="M299.761 67.9098C299.776 68.9025 299.613 69.8899 299.282 70.8256C298.988 71.6609 298.518 72.4236 297.905 73.0624C297.298 73.6861 296.563 74.17 295.75 74.4803C294.84 74.8287 293.871 74.9982 292.897 74.9796C291.901 74.9833 290.906 74.9031 289.924 74.7399C289.133 74.6301 288.352 74.4564 287.589 74.2207V55.1083L290.742 54.6689V61.6788C291.168 61.4582 291.616 61.2842 292.079 61.1596C292.643 60.9949 293.227 60.9141 293.815 60.9199C294.687 60.9061 295.552 61.0833 296.349 61.4392C297.083 61.7463 297.728 62.234 298.224 62.8571C298.743 63.5262 299.135 64.2841 299.382 65.0939C299.654 66.0348 299.788 67.0102 299.781 67.9897M296.568 67.9897C296.624 66.8842 296.354 65.7867 295.79 64.8343C295.509 64.4423 295.132 64.1296 294.695 63.9267C294.258 63.7237 293.776 63.6373 293.296 63.6759C292.394 63.6923 291.513 63.9472 290.742 64.4149V72.2036L291.6 72.3434C292.025 72.3667 292.452 72.3667 292.877 72.3434C293.39 72.3709 293.902 72.2788 294.372 72.0743C294.843 71.8698 295.26 71.5585 295.591 71.1651C296.293 70.2388 296.64 69.0906 296.568 67.9298" fill="#1490FE"/>
</g>
<defs>
<filter id="filter0_i_297_5283" x="0" y="11.4385" width="65.7544" height="64.5605" filterUnits="userSpaceOnUse" color-interpolation-filters="sRGB">
<feFlood flood-opacity="0" result="BackgroundImageFix"/>
<feBlend mode="normal" in="SourceGraphic" in2="BackgroundImageFix" result="shape"/>
<feColorMatrix in="SourceAlpha" type="matrix" values="0 0 0 0 0 0 0 0 0 0 0 0 0 0 0 0 0 0 127 0" result="hardAlpha"/>
<feOffset dx="1" dy="1"/>
<feGaussianBlur stdDeviation="1.5"/>
<feComposite in2="hardAlpha" operator="arithmetic" k2="-1" k3="1"/>
<feColorMatrix type="matrix" values="0 0 0 0 1 0 0 0 0 1 0 0 0 0 1 0 0 0 0.35 0"/>
<feBlend mode="normal" in2="shape" result="effect1_innerShadow_297_5283"/>
</filter>
<filter id="filter1_i_297_5283" x="22.8345" y="0" width="53.1643" height="52.4648" filterUnits="userSpaceOnUse" color-interpolation-filters="sRGB">
<feFlood flood-opacity="0" result="BackgroundImageFix"/>
<feBlend mode="normal" in="SourceGraphic" in2="BackgroundImageFix" result="shape"/>
<feColorMatrix in="SourceAlpha" type="matrix" values="0 0 0 0 0 0 0 0 0 0 0 0 0 0 0 0 0 0 127 0" result="hardAlpha"/>
<feOffset dx="1" dy="1"/>
<feGaussianBlur stdDeviation="1.5"/>
<feComposite in2="hardAlpha" operator="arithmetic" k2="-1" k3="1"/>
<feColorMatrix type="matrix" values="0 0 0 0 1 0 0 0 0 1 0 0 0 0 1 0 0 0 0.35 0"/>
<feBlend mode="normal" in2="shape" result="effect1_innerShadow_297_5283"/>
</filter>
<linearGradient id="paint0_linear_297_5283" x1="3.65599" y1="19.679" x2="60.2055" y2="70.7013" gradientUnits="userSpaceOnUse">
<stop stop-color="#00BCD5"/>
<stop offset="0.752028" stop-color="#445FEE"/>
</linearGradient>
<linearGradient id="paint1_linear_297_5283" x1="25.7796" y1="6.6723" x2="71.5428" y2="47.7524" gradientUnits="userSpaceOnUse">
<stop stop-color="#00BCD5"/>
<stop offset="0.752028" stop-color="#445FEE"/>
</linearGradient>
<clipPath id="clip0_297_5283">
<rect width="299.996" height="74.9993" fill="white"/>
</clipPath>
</defs>
</svg>
